<?xml version="1.0" standalone="no"?>
<!DOCTYPE svg PUBLIC "-//W3C//DTD SVG 20010904//EN"
 "http://www.w3.org/TR/2001/REC-SVG-20010904/DTD/svg10.dtd">
<svg version="1.0" xmlns="http://www.w3.org/2000/svg"
 width="2000.000000pt" height="2000.000000pt" viewBox="0 0 2000.000000 2000.000000"
 preserveAspectRatio="xMidYMid meet">

<g transform="translate(0.000000,2000.000000) scale(0.100000,-0.100000)"
fill="#000000" stroke="none">
<path d="M15180 15755 c-429 -118 -701 -319 -854 -632 -109 -222 -167 -454
-196 -793 -6 -67 -10 -555 -10 -1167 l0 -1053 -1510 0 -1510 0 0 1080 c0 1067
0 1081 21 1143 11 34 34 83 51 109 38 61 130 145 196 181 59 32 176 57 268 57
l65 0 -3 38 -3 37 -847 3 -848 2 0 -40 0 -40 63 0 c146 -1 269 -48 372 -143
73 -66 128 -164 145 -256 14 -75 14 -4498 0 -4721 -11 -168 -39 -389 -64 -492
-7 -32 -10 -58 -6 -58 15 0 113 83 178 149 126 130 256 323 359 537 l48 99 3
1037 2 1038 1510 0 1511 0 -3 -1047 -3 -1048 -24 -64 c-35 -94 -96 -177 -176
-238 -96 -73 -155 -94 -287 -100 l-108 -6 0 -38 0 -39 850 0 850 0 0 40 0 40
-80 0 c-43 0 -103 5 -132 11 -164 35 -320 181 -362 341 -16 58 -17 242 -14
2398 4 2548 0 2373 59 2665 23 117 88 313 131 400 93 185 250 365 410 469 l87
57 -20 34 c-12 19 -24 35 -27 34 -4 0 -45 -11 -92 -24z"/>
<path d="M9320 15359 c-77 -28 -396 -94 -575 -118 -276 -38 -384 -41 -1511
-41 l-1104 0 0 -48 0 -49 128 -6 c96 -4 146 -12 207 -31 143 -45 273 -140 349
-255 54 -81 75 -141 87 -251 6 -52 8 -1195 7 -2945 l-3 -2860 -23 -75 c-33
-107 -84 -192 -167 -279 -133 -139 -249 -189 -460 -200 l-130 -6 -3 -47 -3
-48 2463 0 2463 0 289 808 c159 444 291 813 294 820 3 10 -8 12 -47 10 l-52
-3 -52 -120 c-133 -305 -308 -574 -498 -765 -240 -241 -476 -352 -889 -417
-106 -17 -209 -18 -1320 -18 l-1205 0 -3 1513 -2 1512 1027 -2 1028 -3 78 -37
c144 -69 249 -203 276 -352 6 -33 11 -102 11 -153 l0 -93 50 0 50 0 0 800 0
800 -50 0 -50 0 0 -97 c0 -119 -20 -216 -57 -286 -39 -73 -136 -168 -211 -206
-124 -62 -91 -61 -1169 -61 l-983 0 0 1565 0 1566 638 -3 c633 -3 637 -3 697
-26 128 -48 260 -165 329 -291 45 -84 66 -188 66 -333 l0 -128 50 0 50 0 0
640 c0 352 -3 640 -7 639 -5 0 -33 -9 -63 -20z"/>
<path d="M6420 6535 l0 -385 200 0 200 0 0 30 0 30 -165 0 -165 0 0 145 0 145
145 0 145 0 0 35 0 35 -145 0 -145 0 0 140 0 140 163 2 162 3 0 30 0 30 -197
3 -198 2 0 -385z"/>
<path d="M7190 6535 l0 -385 175 0 175 0 0 30 0 30 -140 0 -140 0 0 355 0 355
-35 0 -35 0 0 -385z"/>
<path d="M7812 6906 c2 -7 66 -180 143 -384 l140 -372 45 0 45 0 143 378 c78
207 142 380 142 385 0 12 -68 8 -76 -5 -4 -7 -63 -161 -130 -343 -116 -313
-123 -328 -134 -300 -12 32 -215 580 -232 628 -9 23 -15 27 -50 27 -28 0 -39
-4 -36 -14z"/>
<path d="M8810 6536 l0 -386 40 0 40 0 -2 383 -3 382 -37 3 -38 3 0 -385z"/>
<path d="M9503 6906 c-92 -30 -176 -107 -221 -204 -24 -51 -27 -69 -27 -167 0
-102 2 -115 31 -175 110 -232 404 -290 598 -119 156 138 160 425 9 577 -70 69
-139 96 -253 99 -59 2 -111 -3 -137 -11z m201 -61 c70 -18 130 -60 168 -117
39 -57 52 -110 52 -203 -1 -129 -53 -224 -156 -280 -47 -27 -62 -30 -138 -30
-100 0 -153 20 -212 80 -59 59 -81 116 -86 220 -3 75 0 100 18 149 37 97 110
162 207 185 56 13 83 13 147 -4z"/>
<path d="M10370 6536 l0 -386 35 0 35 0 0 160 0 160 73 0 73 0 94 -160 95
-160 44 0 c31 0 42 4 38 13 -3 7 -46 80 -96 163 -89 146 -91 149 -67 155 165
44 221 246 102 365 -22 23 -59 47 -81 54 -22 7 -109 14 -192 17 l-153 5 0
-386z m347 288 c64 -47 82 -160 36 -222 -41 -55 -77 -67 -198 -67 l-110 0 -3
159 -3 158 125 -3 c107 -3 129 -7 153 -25z"/>
<path d="M11757 6913 c-4 -3 -7 -177 -7 -385 l0 -378 40 0 40 0 0 180 0 180
205 0 205 0 0 -180 0 -180 40 0 40 0 0 386 0 385 -37 -3 -38 -3 -3 -172 -2
-173 -205 0 -205 0 0 175 0 175 -33 0 c-19 0 -37 -3 -40 -7z"/>
<path d="M12918 6897 c-171 -72 -262 -247 -228 -437 39 -216 236 -353 446
-310 120 24 211 95 266 208 31 63 33 73 33 172 -1 130 -23 194 -96 275 -75 82
-139 109 -264 113 -87 2 -107 0 -157 -21z m279 -73 c59 -29 107 -78 137 -143
32 -69 30 -225 -3 -299 -68 -150 -257 -215 -406 -139 -65 33 -97 68 -132 142
-24 52 -28 72 -28 150 0 76 4 99 26 146 29 60 81 119 130 144 78 41 192 40
276 -1z"/>
<path d="M13800 6647 c0 -309 7 -351 66 -417 53 -59 114 -83 210 -84 71 -1 88
3 140 29 77 40 118 98 133 192 7 41 11 162 9 308 l-3 240 -37 3 -37 3 -3 -288
c-3 -275 -4 -290 -25 -329 -28 -53 -78 -84 -145 -91 -94 -9 -169 24 -206 90
-15 28 -18 72 -22 322 l-5 290 -37 3 -38 3 0 -274z"/>
<path d="M14841 6894 c-62 -32 -101 -84 -108 -148 -8 -63 4 -110 34 -146 34
-40 79 -63 194 -95 52 -15 109 -36 128 -48 36 -22 61 -69 61 -115 0 -39 -38
-93 -80 -114 -40 -20 -139 -24 -173 -7 -38 20 -76 61 -88 96 -10 30 -14 33
-51 33 -39 0 -40 0 -33 -32 30 -142 214 -216 376 -151 87 34 142 143 119 236
-22 86 -72 119 -270 178 -101 31 -140 68 -140 133 0 65 21 100 76 126 37 18
56 22 102 17 63 -7 96 -27 131 -80 21 -32 29 -37 64 -37 32 0 38 3 33 16 -3 9
-6 22 -6 30 0 23 -72 96 -115 115 -28 13 -64 19 -121 19 -67 0 -89 -4 -133
-26z"/>
<path d="M15600 6535 l0 -385 200 0 200 0 0 30 0 30 -165 0 -165 0 0 145 0
145 145 0 145 0 0 35 0 35 -145 0 -145 0 0 140 0 140 163 2 162 3 0 30 0 30
-197 3 -198 2 0 -385z"/>
</g>
</svg>
